<svg xmlns="http://www.w3.org/2000/svg" viewBox="0 0 557 1210">
  <rect width="557" height="1210" fill="#fcfbf8"/><text x="38" y="130" font-family="system-ui" font-size="44" font-weight="700" fill="#28251f">Your week</text><text x="38" y="170" font-family="system-ui" font-size="22" fill="#81796c">Momentum worth celebrating.</text>
  <rect x="30" y="220" width="497" height="330" rx="34" fill="#252a34"/><text x="62" y="277" font-family="system-ui" font-size="20" fill="#aeb3bc">FOCUS TIME</text><text x="62" y="335" font-family="system-ui" font-size="46" font-weight="700" fill="white">8h 42m</text><text x="62" y="372" font-family="system-ui" font-size="20" fill="#74c3a1">↑ 18% from last week</text><polyline points="62,492 126,458 190,470 254,404 318,428 382,350 470,370" fill="none" stroke="#f0c75a" stroke-width="10" stroke-linecap="round" stroke-linejoin="round"/>
  <g font-family="system-ui"><rect x="30" y="585" width="238" height="188" rx="30" fill="#f0dfad"/><text x="58" y="634" font-size="19" fill="#705d2c">TASKS DONE</text><text x="58" y="704" font-size="50" font-weight="700" fill="#392f1c">24</text><rect x="289" y="585" width="238" height="188" rx="30" fill="#c8e2d7"/><text x="317" y="634" font-size="19" fill="#456b5b">BEST STREAK</text><text x="317" y="704" font-size="50" font-weight="700" fill="#263d34">12</text></g>
  <text x="38" y="858" font-family="system-ui" font-size="26" font-weight="700" fill="#28251f">Most productive</text><rect x="30" y="890" width="497" height="116" rx="26" fill="#f2eee7"/><text x="62" y="944" font-family="system-ui" font-size="23" fill="#423d35">Tuesday mornings</text><text x="62" y="978" font-family="system-ui" font-size="19" fill="#8a8173">Protect this time for deep work</text>
</svg>
